Coordinates
version=1
nRows=29
nColumns=24
inDegrees=yes

Units are S.I. units (second, meters, Newtons, ...)
Angles are in degrees.

endheader
time	pelvis_tilt	pelvis_list	pelvis_rotation	pelvis_tx	pelvis_ty	pelvis_tz	hip_flexion_r	hip_adduction_r	hip_rotation_r	knee_angle_r	ankle_angle_r	subtalar_angle_r	mtp_angle_r	hip_flexion_l	hip_adduction_l	hip_rotation_l	knee_angle_l	ankle_angle_l	subtalar_angle_l	mtp_angle_l	lumbar_extension	lumbar_bending	lumbar_rotation
      2.32000000	     15.70876134	     -4.26759633	      2.28585813	      0.89260384	      0.91891404	      0.35241031	     12.07911475	      5.63210716	     -4.23590250	    -30.39071172	     14.46783733	      0.38520117	     28.81343584	    -18.60089542	     -6.71490571	     -2.72167909	    -52.47422793	     12.18227319	      5.00958378	     52.59555821	    -30.79136240	      9.65194941	      6.15771150
      2.32500000	     15.42975691	     -4.58291391	      2.56075939	      0.89853449	      0.91896294	      0.35293623	     12.01819868	      6.11196575	     -4.21581558	    -30.39480611	     14.73998922	     -0.04933253	     28.67867063	    -17.16637490	     -7.12634936	     -2.16833847	    -54.54019590	     12.33421907	      4.20039601	     52.29539649	    -30.49639307	     10.13122472	      6.22613703
      2.33000000	     15.07505738	     -4.87514072	      2.73653213	      0.90437716	      0.91894039	      0.35355355	     12.05776431	      6.55280716	     -4.09368925	    -30.44366171	     14.93943596	     -0.19410949	     28.10659534	    -15.66879648	     -7.43429591	     -1.69238138	    -56.50324041	     12.81832337	      3.62205233	     51.50121922	    -30.13625100	     10.53148228	      6.36341375
      2.33500000	     14.93733839	     -5.17598717	      3.01361475	      0.91030356	      0.91938103	      0.35400873	     11.81017162	      6.96971497	     -4.20976829	    -30.42049355	     15.28905121	     -0.32334532	     27.06240258	    -14.42986098	     -7.77645075	     -1.19707610	    -58.28207502	     13.17156889	      2.94136378	     50.65146334	    -29.99023562	     10.99584663	      6.47441898
      2.34000000	     14.91633216	     -5.37601155	      3.26943152	      0.91611615	      0.92015113	      0.35439821	     11.38550036	      7.26408926	     -4.36411815	    -30.30617893	     15.68865967	     -0.38193167	     26.41860759	    -13.34032503	     -7.97006628	     -0.69436075	    -59.89554652	     13.34032673	      1.92282187	     50.19762851	    -29.98092658	     11.35326251	      6.47287161
      2.34500000	     14.82171902	     -5.50453530	      3.52095383	      0.92192978	      0.92093381	      0.35458946	     11.03887305	      7.42684886	     -4.59119556	    -30.21274335	     16.12394950	     -0.29180255	     26.01028162	    -12.18193152	     -8.03200784	     -0.13751565	    -61.37423233	     13.46424224	      0.52268899	     49.30847910	    -29.86656081	     11.63904033	      6.42970940
      2.35000000	     14.84700621	     -5.66646372	      3.76039055	      0.92777921	      0.92204618	      0.35495037	     10.50125490	      7.65825523	     -4.70279367	    -30.00388387	     16.45849683	     -0.35770651	     25.85185181	    -11.14606168	     -8.20570846	      0.24968029	    -62.75527719	     13.52956510	     -0.61918475	     49.04175277	    -29.89260645	     11.95094058	      6.48550687
      2.35500000	     14.62636727	     -5.77446120	      3.92827970	      0.93344904	      0.92273096	      0.35541267	     10.32231194	      7.79290921	     -4.79747411	    -29.96509609	     16.85111841	     -0.09329630	     25.00809903	     -9.79080852	     -8.31222409	      0.57405127	    -64.16692287	     13.67057297	     -1.57808713	     48.12629800	    -29.66966916	     12.14081335	      6.43736419
      2.36000000	     14.51411653	     -5.93449931	      4.10861107	      0.93903682	      0.92364465	      0.35589154	      9.96461732	      8.00181107	     -4.90645946	    -29.78010238	     17.20407663	      0.11082852	     23.64473583	     -8.53889515	     -8.50099860	      0.85170619	    -65.50191758	     13.80152356	     -2.24134066	     47.26903690	    -29.56666472	     12.39619516	      6.53563210
      2.36500000	     14.58696580	     -6.08471466	      4.20546349	      0.94477643	      0.92489841	      0.35646350	      9.33282193	      8.24383128	     -4.90403656	    -29.48225113	     17.41773839	      0.26909578	     23.57519113	     -7.57699176	     -8.69363345	      0.96725622	    -66.62830518	     13.92782419	     -2.96358154	     47.17694296	    -29.69050156	     12.60560765	      6.64909051
      2.37000000	     14.53410259	     -6.20381925	      4.45462085	      0.95043222	      0.92597419	      0.35691556	      8.81588127	      8.44507129	     -5.05440162	    -29.10215487	     17.61735543	      0.24053351	     23.36758155	     -6.40662993	     -8.83878910	      1.33460334	    -67.75281214	     14.10662384	     -3.34559442	     47.17286306	    -29.62715686	     12.83121098	      6.57369713
      2.37500000	     14.36231475	     -6.30333108	      4.55073237	      0.95614327	      0.92692484	      0.35754418	      8.44576528	      8.63047213	     -5.10153618	    -28.78216335	     17.88749672	      0.32283284	     22.93231539	     -5.15525524	     -8.92079132	      1.51634838	    -68.75118847	     14.29142667	     -3.95705835	     46.72821546	    -29.44532280	     12.94611708	      6.59187319
      2.38000000	     14.39995142	     -6.36976262	      4.63975104	      0.96179834	      0.92822461	      0.35806193	      7.81827104	      8.78879850	     -5.19926002	    -28.41979526	     18.13248184	      0.37378333	     22.87533015	     -4.17880915	     -8.97774495	      1.64072737	    -69.58154280	     14.57046784	     -4.43665436	     46.58703323	    -29.49595218	     13.05654347	      6.66121274
      2.38500000	     14.20767366	     -6.37367493	      4.73531590	      0.96744467	      0.92912759	      0.35850061	      7.47854242	      8.84170874	     -5.33733977	    -28.12089056	     18.41426960	      0.48776664	     22.42597248	     -2.93760600	     -8.91617798	      1.86228919	    -70.41652793	     14.92685022	     -4.55528862	     45.76120949	    -29.28991749	     13.10417291	      6.62047228
      2.39000000	     14.25567496	     -6.42221448	      4.76591334	      0.97314811	      0.93046225	      0.35898450	      6.80243718	      8.97748792	     -5.39915752	    -27.69399766	     18.64068848	      0.57682406	     22.39917316	     -2.03031997	     -8.93051878	      1.91936655	    -71.05101940	     15.14937643	     -4.78423819	     45.68759122	    -29.35841315	     13.16273419	      6.77300529
      2.39500000	     14.25150717	     -6.45944849	      4.88750846	      0.97881108	      0.93173746	      0.35943912	      6.13229378	      9.10287910	     -5.52881994	    -27.14983612	     18.79459804	      0.60251651	     22.32969272	     -1.04657749	     -8.94195638	      2.06582362	    -71.62303414	     15.48202414	     -4.74085577	     45.55476045	    -29.35472857	     13.22434638	      6.74394399
      2.40000000	     14.30488267	     -6.51891543	      4.94593201	      0.98453119	      0.93312498	      0.36008185	      5.34990301	      9.28673631	     -5.50019672	    -26.51680839	     18.92417324	      0.61484010	     22.26970894	     -0.16994689	     -8.99907111	      2.13080305	    -72.08999174	     15.83486321	     -4.49383400	     45.41174502	    -29.41765245	     13.28090551	      6.77919317
      2.40500000	     14.41727202	     -6.61015031	      4.93942928	      0.99030781	      0.93462393	      0.36066166	      4.48381912	      9.48628598	     -5.46118303	    -25.85672705	     19.02884382	      0.74993708	     22.23859406	      0.57681535	     -9.08109253	      2.11326461	    -72.43119638	     16.22949074	     -4.11323261	     45.39529082	    -29.55596776	     13.34348787	      6.97664842
      2.41000000	     14.48950708	     -6.70294202	      4.89906554	      0.99615951	      0.93598331	      0.36136662	      3.64575109	      9.71638799	     -5.24154409	    -25.18477107	     19.12076939	      0.74561741	     22.21006963	      1.34873508	     -9.17969911	      2.04179628	    -72.70470490	     16.61417052	     -3.67144419	     45.36529798	    -29.64865063	     13.39383614	      7.13702713
      2.41500000	     14.52048598	     -6.73262751	      4.72021169	      1.00203587	      0.93725027	      0.36217223	      2.94089827	      9.85044617	     -4.95521213	    -24.72374938	     19.27208742	      0.83458532	     22.18640397	      2.08505937	     -9.18059825	      1.85275476	    -72.85365500	     16.93738502	     -3.35273290	     45.21356353	    -29.70366876	     13.30502523	      7.40274507
      2.42000000	     14.60825720	     -6.76107627	      4.57338713	      1.00801008	      0.93862738	      0.36277328	      2.13014114	      9.95532421	     -4.77895855	    -24.18964245	     19.42218726	      1.02218954	     22.16374768	      2.70877794	     -9.16639550	      1.66035490	    -72.88164101	     17.39115307	     -2.86068182	     45.11690464	    -29.80078141	     13.23820274	      7.62384736
      2.42500000	     14.95945720	     -6.87913165	      4.48457632	      1.01407345	      0.94043740	      0.36350636	      0.87049245	     10.21143817	     -4.53870633	    -23.33738057	     19.49612670	      1.28001660	     20.78638896	      3.01546892	     -9.29913442	      1.50442100	    -72.77962857	     17.89197510	     -2.21920341	     44.17633006	    -30.17109185	     13.27133278	      7.86172411
      2.43000000	     15.19083466	     -6.99257427	      4.39979409	      1.02016030	      0.94199184	      0.36419383	     -0.31527522	     10.46764024	     -4.17449981	    -22.36375731	     19.39374158	      1.28791000	     20.34544658	      3.47561540	     -9.43398723	      1.35338277	    -72.67423193	     18.26248270	     -1.54969192	     44.24417424	    -30.40867357	     13.30326273	      8.12398978
      2.43500000	     15.41792020	     -7.08163239	      4.35820640	      1.02634883	      0.94353206	      0.36476700	     -1.56273644	     10.67696377	     -3.88034603	    -21.26711675	     19.35188610	      1.36771475	     20.32994082	      3.90874089	     -9.53964526	      1.21092757	    -72.46940621	     18.65156646	     -0.90131771	     44.24465756	    -30.62061552	     13.35732687	      8.29237145
      2.44000000	     15.78798054	     -7.18923054	      4.38580100	      1.03258936	      0.94521398	      0.36533427	     -3.02116622	     10.91173856	     -3.68511303	    -20.05649114	     19.33250418	      1.37140836	     20.58001441	      4.17270889	     -9.69117186	      1.07990944	    -72.17390533	     19.09049600	     -0.36935695	     44.21693330	    -30.95505812	     13.43926946	      8.41176101
      2.44500000	     16.11150110	     -7.29113019	      4.40247161	      1.03878351	      0.94673911	      0.36595562	     -4.38680358	     11.11626779	     -3.60837326	    -18.91476827	     19.34333609	      1.41757750	     21.01783735	      4.49061327	     -9.83064711	      0.96251119	    -71.84819115	     19.43380819	      0.26191614	     44.14678132	    -31.22948862	     13.49516433	      8.48814680
      2.45000000	     16.32332417	     -7.41450756	      4.29009263	      1.04482083	      0.94798910	      0.36675220	     -5.52268102	     11.30718147	     -3.49678114	    -17.96060828	     19.21612132	      1.43274629	     22.92958749	      4.93080434	     -9.98857873	      0.72652460	    -71.52340854	     19.69618938	      0.84991762	     43.65528641	    -31.43423877	     13.50223195	      8.75300673
      2.45500000	     16.49225597	     -7.49030436	      4.12710061	      1.05074811	      0.94907098	      0.36759393	     -6.51414307	     11.44017311	     -3.28418903	    -17.22624163	     19.28713030	      1.41663610	     22.96659283	      5.39075028	    -10.09006117	      0.43412394	    -71.12523059	     19.93665855	      1.34062860	     43.68853959	    -31.61101989	     13.44668340	      8.99444340
      2.46000000	     16.61813895	     -7.51268236	      3.90007264	      1.05659546	      0.95003991	      0.36843130	     -7.40118456	     11.49464015	     -3.03275075	    -16.61198119	     19.36891395	      1.48501938	     23.02964073	      5.85355153	    -10.11427819	      0.08684838	    -70.64234956	     20.20437562	      1.72555059	     43.72722279	    -31.75023917	     13.30611157	      9.27372480
